{"title":"Hack Job 2011 DVDRip XviD-ZOMBiES","uid":7022196,"size":808257492,"categoryP":"video","categoryS":"movies","magnet":"?xt=urn:btih:9027a6f886e2dc7ec8650593fe5996289e3eff9c&amp;dn=Hack+Job+2011+DVDRip+XviD-ZOMBiES&amp;tr=udp%3A%2F%2Ftracker.openbittorrent.com%3A80&amp;tr=udp%3A%2F%2Fopen.demonii.com%3A1337&amp;tr=udp%3A%2F%2Ftracker.coppersurfer.tk%3A6969&amp;tr=udp%3A%2F%2Fexodus.desync.com%3A6969","seeders":0,"leechers":1,"uploader":"MsB1982","files":-1,"time":1328885069,"description":"Release Name : Hack Job 2011 DVDRip XviD-ZOMBiES\nRating : N/A/10\nGenre : Comedy, Horror, Thriller\nStars : James Balsamo, Michael Shershenovich, Dave Brockie, Lynn Lowry\nDirector : James Balsamo\nWriters : James Balsamo\nRelease Date : N/A\nMovie Runtime : 1 hr 36 mins\nRated Under : N/A\nMovie Plot : An anthology film with three stories, all taking place in the same small town.\n &lt;a href=&quot;\nhttp://www.imdb.com/title/tt1907681/&quot; rel=&quot;nofollow&quot; target=&quot;_NEW&quot;&gt;\nhttp://www.imdb.com/title/tt1907681/&lt;/a&gt;\n\n\nFormat                           : AVI\nFormat/Info                      : Audio Video Interleave\nFile size                        : 771 MiB\nDuration                         : 1h 36mn\nOverall bit rate                 : 1 123 Kbps\nWriting library                  : VirtualDub build 32842/release\n\nVideo\nID                               : 0\nFormat                           : MPEG-4 Visual\nFormat profile                   : Advanced Simple@L5\nFormat settings, BVOP            : Yes\nFormat settings, QPel            : No\nFormat settings, GMC             : No warppoints\nFormat settings, Matrix          : Default (H.263)\nMuxing mode                      : Packed bitstream\nCodec ID                         : XVID\nCodec ID/Hint                    : XviD\nDuration                         : 1h 36mn\nBit rate                         : 996 Kbps\nWidth                            : 720 pixels\nHeight                           : 400 pixels\nDisplay aspect ratio             : 16:9\nFrame rate                       : 23.976 fps\nColor space                      : YUV\nChroma subsampling               : 4:2:0\nBit depth                        : 8 bits\nScan type                        : Progressive\nBits/(Pixel*Frame)               : 0.144\nStream size                      : 684 MiB (89%)\nWriting library                  : XviD 1.2.1 (UTC 2008-12-04)\n\nAudio\nID                               : 1\nFormat                           : MPEG Audio\nFormat version                   : Version 1\nFormat profile                   : Layer 3\nMode                             : Joint stereo\nMode extension                   : MS Stereo\nCodec ID                         : 55\nCodec ID/Hint                    : MP3\nDuration                         : 1h 36mn\nBit rate mode                    : Variable\nBit rate                         : 117 Kbps\nChannel(s)                       : 2 channels\nSampling rate                    : 48.0 KHz\nStream size                      : 80.4 MiB (10%)\nAlignment                        : Split accross interleaves\nInterleave, duration             : 42 ms (1.00 video frame)\nInterleave, preload duration     : 546 ms\n\nSource : SiC ","torrent":{"xt":"urn:btih:9027a6f886e2dc7ec8650593fe5996289e3eff9c","amp;dn":"Hack+Job+2011+DVDRip+XviD-ZOMBiES","amp;tr":["udp%3A%2F%2Ftracker.openbittorrent.com%3A80","udp%3A%2F%2Fopen.demonii.com%3A1337","udp%3A%2F%2Ftracker.coppersurfer.tk%3A6969","udp%3A%2F%2Fexodus.desync.com%3A6969"],"infoHash":"9027a6f886e2dc7ec8650593fe5996289e3eff9c","infoHashBuffer":{"type":"Buffer","data":[144,39,166,248,134,226,220,126,200,101,5,147,254,89,150,40,158,62,255,156]},"announce":[],"urlList":[]}}